<?xml version="1.0" standalone="no"?>
<!DOCTYPE svg PUBLIC "-//W3C//DTD SVG 20010904//EN"
 "http://www.w3.org/TR/2001/REC-SVG-20010904/DTD/svg10.dtd">
<svg version="1.0" xmlns="http://www.w3.org/2000/svg"
 width="89.000000pt" height="88.000000pt" viewBox="0 0 89.000000 88.000000"
 preserveAspectRatio="xMidYMid meet">

<g transform="translate(0.000000,88.000000) scale(0.100000,-0.100000)"
fill="#000000" stroke="none">
<path d="M355 748 c-29 -23 -30 -35 -9 -160 6 -37 5 -39 -32 -54 l-38 -16 24
-13 c32 -17 36 -83 10 -142 -10 -24 -15 -43 -10 -43 5 0 10 -17 12 -37 2 -28
9 -41 26 -48 12 -5 22 -13 22 -18 0 -4 -10 -5 -22 -2 -17 3 -35 -6 -67 -34
l-44 -39 49 -31 c94 -60 184 -65 259 -13 62 42 85 98 85 204 0 75 3 91 20 108
16 16 24 18 40 10 18 -9 20 -20 18 -75 -3 -73 12 -103 32 -64 17 31 -14 186
-39 193 -9 3 -42 10 -75 16 -71 14 -89 4 -58 -35 16 -20 19 -32 12 -54 -12
-44 -27 -67 -61 -95 -30 -25 -30 -27 -15 -51 13 -20 14 -23 1 -19 -8 3 -23 21
-34 40 -11 19 -27 37 -36 40 -8 4 -15 16 -15 28 -1 19 -2 19 -11 4 -10 -17
-59 -25 -72 -12 -3 4 1 20 9 35 8 16 14 44 12 62 -3 43 5 53 46 61 19 4 39 13
46 21 7 8 25 15 40 15 26 0 176 -25 211 -36 12 -3 23 11 43 55 39 88 34 111
-29 111 -13 0 -87 25 -164 55 -78 30 -145 55 -150 55 -4 0 -21 -10 -36 -22z
m197 -59 c69 -27 140 -49 157 -49 17 0 31 -5 31 -12 0 -23 -24 -78 -35 -78
-30 1 -330 61 -337 68 -4 4 -11 28 -14 53 -5 35 -2 49 11 63 20 20 21 20 187
-45z"/>
<path d="M407 696 c-24 -18 -11 -53 19 -53 13 0 24 3 24 7 0 5 2 14 5 22 8 21
-27 38 -48 24z"/>
<path d="M231 602 c-43 -42 -63 -72 -76 -112 -34 -100 -19 -206 41 -298 15
-22 15 -22 45 -5 17 10 35 26 40 36 11 19 3 58 -14 69 -7 4 -2 27 15 66 32 74
28 116 -14 138 -38 20 -32 36 20 52 45 15 43 9 27 87 -3 14 -10 25 -16 25 -6
0 -37 -26 -68 -58z"/>
<path d="M746 516 c-13 -31 -12 -45 6 -132 29 -140 32 -147 48 -99 7 22 13 65
13 95 0 54 -26 155 -43 165 -5 3 -16 -10 -24 -29z"/>
<path d="M413 457 c-50 -13 -59 -33 -10 -23 17 4 42 7 55 8 18 0 20 3 11 14
-6 8 -12 13 -13 13 0 -1 -20 -7 -43 -12z"/>
<path d="M385 410 c3 -5 20 -10 36 -10 18 0 28 4 24 10 -3 6 -20 10 -36 10
-18 0 -28 -4 -24 -10z"/>
<path d="M740 251 c0 -22 -67 -85 -147 -138 -46 -31 -82 -58 -79 -60 7 -7 87
17 129 38 21 11 56 36 77 56 31 28 40 43 40 69 0 18 -4 36 -10 39 -5 3 -10 2
-10 -4z"/>
</g>
</svg>
